<svg width="131" height="131" viewBox="0 0 131 131" fill="none" xmlns="http://www.w3.org/2000/svg">
<g clip-path="url(#clip0_1595_3328)">
<path d="M62.8485 0.619064C61.4373 1.08043 59.8903 2.03029 56.308 4.63564C50.4731 8.89647 49.4961 9.14072 42.4942 8.38083C35.6552 7.62093 33.2398 8.02802 31.0144 10.3077C30.0102 11.3118 29.1961 12.8588 26.1022 19.4264C24.0939 23.7687 22.6556 24.9628 16.0336 27.7853C12.7227 29.2236 10.0088 30.9605 9.16744 32.2361C7.67479 34.4343 7.45768 36.7683 8.19043 42.9288C8.70608 47.2168 8.57038 49.4422 7.70193 51.4234C7.37626 52.2104 5.91075 54.4901 4.41811 56.5255C0.510081 61.8991 0.292969 62.3604 0.292969 65.5085C0.292969 68.6567 0.510081 69.118 4.41811 74.4916C8.62466 80.2722 8.95033 81.3849 8.1633 88.3054C7.15915 97.1255 8.10902 99.3781 13.9168 102.173C15.4637 102.906 17.9605 104.1 19.5074 104.833C23.0898 106.543 24.3925 107.9 26.1022 111.591C29.1961 118.158 30.0102 119.705 31.0144 120.709C33.2398 122.989 35.6552 123.396 42.4942 122.636C49.4961 121.876 50.4731 122.121 56.308 126.381C61.6001 130.235 62.17 130.507 65.1553 130.507C68.2492 130.507 69.2533 130.072 74.274 126.381C80.0818 122.121 81.0588 121.876 88.0878 122.636C97.1251 123.613 99.1334 122.745 102.119 116.53C102.933 114.82 104.154 112.296 104.805 110.939C106.325 107.737 107.791 106.353 111.373 104.697C117.941 101.603 119.488 100.789 120.492 99.7852C122.772 97.5598 123.179 95.1444 122.419 88.3054C121.659 81.3035 121.903 80.3265 126.164 74.4916C130.072 69.118 130.289 68.6567 130.289 65.5085C130.289 62.3604 130.072 61.8991 126.164 56.5255C121.957 50.7449 121.632 49.6322 122.419 42.7117C123.179 35.9541 122.772 33.4573 120.492 31.2319C119.488 30.2278 117.778 29.3322 111.102 26.2112C107.058 24.3386 105.81 22.7645 103.014 16.2512C99.6219 8.35369 97.5322 7.26813 87.8707 8.40797C81.2759 9.16786 80.0275 8.84219 74.274 4.63564C69.2533 0.999008 68.412 0.564774 65.6981 0.483368C64.504 0.429092 63.2284 0.483368 62.8485 0.619064ZM92.3487 44.7743C94.764 45.9413 96.2838 48.3295 96.311 51.0977C96.311 54.2187 96.6366 53.8388 79.1862 71.262C70.4203 80.0008 62.8214 87.3826 62.3057 87.654C60.8945 88.3868 57.6378 88.3596 56.1994 87.5726C54.5711 86.7042 35.3295 67.2726 34.7596 65.9156C34.4882 65.3186 34.2711 64.0973 34.2711 63.2017C34.2439 59.1037 37.3106 56.0099 41.3815 56.0099C44.3668 56.037 44.8553 56.3627 52.4814 63.9616L59.3204 70.8007L72.1572 57.991C79.1862 50.962 85.3739 44.9914 85.8624 44.7472C87.9521 43.7159 90.0961 43.7159 92.3487 44.7743Z" fill="#EE3131" fill-opacity="0.15"/>
<g filter="url(#filter0_d_1595_3328)">
<path d="M63.0486 5.8959C61.7522 6.31973 60.3311 7.19233 57.0402 9.58573C51.68 13.4999 50.7825 13.7243 44.3502 13.0262C38.0675 12.3282 35.8486 12.7021 33.8042 14.7964C32.8818 15.7188 32.1339 17.1399 29.2917 23.1733C27.4468 27.1623 26.1254 28.2593 20.0422 30.8521C17.0006 32.1735 14.5074 33.7691 13.7346 34.9408C12.3633 36.9603 12.1639 39.1044 12.837 44.7638C13.3107 48.7029 13.1861 50.7473 12.3883 52.5673C12.0891 53.2903 10.7428 55.3845 9.37159 57.2543C5.78148 62.1907 5.58203 62.6146 5.58203 65.5066C5.58203 68.3986 5.78148 68.8225 9.37159 73.7589C13.2359 79.0692 13.5351 80.0914 12.8121 86.4489C11.8896 94.5516 12.7622 96.6209 18.0975 99.1888C19.5186 99.8619 21.8123 100.959 23.2334 101.632C26.5243 103.203 27.721 104.449 29.2917 107.84C32.1339 113.873 32.8818 115.294 33.8042 116.217C35.8486 118.311 38.0675 118.685 44.3502 117.987C50.7825 117.289 51.68 117.513 57.0402 121.427C61.9018 124.968 62.4254 125.217 65.1678 125.217C68.01 125.217 68.9324 124.818 73.5447 121.427C78.88 117.513 79.7775 117.289 86.2347 117.987C94.5369 118.884 96.3818 118.087 99.1242 112.377C99.8722 110.807 100.994 108.488 101.592 107.242C102.989 104.3 104.335 103.028 107.626 101.507C113.659 98.6652 115.08 97.9173 116.003 96.9948C118.097 94.9505 118.471 92.7316 117.773 86.4489C117.075 80.0166 117.299 79.1191 121.213 73.7589C124.803 68.8225 125.003 68.3986 125.003 65.5066C125.003 62.6146 124.803 62.1907 121.213 57.2543C117.349 51.944 117.05 50.9218 117.773 44.5643C118.471 38.3564 118.097 36.0628 116.003 34.0184C115.08 33.0959 113.51 32.2732 107.376 29.4061C103.662 27.6858 102.515 26.2398 99.947 20.2563C96.8305 13.0013 94.9108 12.0041 86.0353 13.0512C79.977 13.7493 78.8302 13.4501 73.5447 9.58573C68.9324 6.24493 68.1596 5.84604 65.6664 5.77124C64.5695 5.72138 63.3977 5.77124 63.0486 5.8959ZM90.149 46.4591C92.3678 47.5312 93.764 49.7251 93.7889 52.2681C93.7889 55.1352 94.0881 54.7862 78.0573 70.792C70.0045 78.8199 63.0237 85.6012 62.55 85.8505C61.2536 86.5237 58.2618 86.4988 56.9405 85.7757C55.4446 84.9779 37.7683 67.1271 37.2448 65.8806C36.9955 65.3321 36.796 64.2102 36.796 63.3874C36.7711 59.6228 39.5883 56.7807 43.328 56.7807C46.0704 56.8056 46.5192 57.1048 53.5249 64.0855L59.8076 70.3682L71.6001 58.6006C78.0573 52.1434 83.7416 46.6586 84.1904 46.4342C86.1101 45.4868 88.0797 45.4868 90.149 46.4591Z" fill="#EE3131"/>
</g>
</g>
<defs>
<filter id="filter0_d_1595_3328" x="1.58203" y="1.7522" width="127.422" height="127.465" filterUnits="userSpaceOnUse" color-interpolation-filters="sRGB">
<feFlood flood-opacity="0" result="BackgroundImageFix"/>
<feColorMatrix in="SourceAlpha" type="matrix" values="0 0 0 0 0 0 0 0 0 0 0 0 0 0 0 0 0 0 127 0" result="hardAlpha"/>
<feOffset/>
<feGaussianBlur stdDeviation="2"/>
<feComposite in2="hardAlpha" operator="out"/>
<feColorMatrix type="matrix" values="0 0 0 0 0 0 0 0 0 0 0 0 0 0 0 0 0 0 0.25 0"/>
<feBlend mode="normal" in2="BackgroundImageFix" result="effect1_dropShadow_1595_3328"/>
<feBlend mode="normal" in="SourceGraphic" in2="effect1_dropShadow_1595_3328" result="shape"/>
</filter>
<clipPath id="clip0_1595_3328">
<rect width="130" height="130" fill="white" transform="translate(0.289062 0.507324)"/>
</clipPath>
</defs>
</svg>
