<svg width="414" height="404" viewBox="0 0 414 404" fill="none" xmlns="http://www.w3.org/2000/svg">
<path d="M124.334 314.495C126.116 314.915 127.901 315.41 129.633 315.999C161.133 326.751 167.942 338.051 163.727 359.634C163.851 359.531 163.979 359.424 164.103 359.321C187.181 339.819 182.925 302.844 156.139 288.842C143.783 282.382 127.625 277.216 108.778 272.952C52.0675 262.191 32.9441 245.857 35.369 226.325C37.5424 204.742 55.309 192.556 88.4213 189.623C92.1784 189.289 95.9685 189.248 99.7297 189.516C137.44 192.161 170.94 211.161 174.974 245.61C178.879 236.905 178.586 230.676 176.611 224.9C175.126 220.558 172.615 216.652 169.505 213.274C149.351 191.403 125.711 184.053 98.1708 182.875C43.5595 183.266 16.2497 203.119 12.67 239.887C12.6081 280.52 45.8566 295.919 124.334 314.495Z" fill="url(#paint0_linear_1243_1471)"/>
<path d="M301.929 265.401C300.147 264.968 298.366 264.47 296.638 263.868C265.192 252.959 258.44 241.626 262.762 220.064C262.635 220.166 262.511 220.274 262.387 220.377C239.21 239.764 243.284 276.759 269.996 290.893C282.319 297.411 298.452 302.663 317.279 307.022C373.936 318.067 392.977 334.496 390.453 354.015C388.172 375.586 370.343 387.681 337.219 390.45C333.462 390.763 329.672 390.783 325.911 390.503C288.212 387.669 254.807 368.504 250.947 334.031C246.996 342.715 247.26 348.944 249.207 354.732C250.671 359.082 253.157 363 256.255 366.391C276.298 388.361 299.904 395.83 327.436 397.148C382.048 397.029 409.461 377.316 413.222 340.564C413.482 299.932 380.312 284.368 301.929 265.401Z" fill="url(#paint1_linear_1243_1471)"/>
<path d="M255.933 213.859C272.966 198.6 294.547 191.065 320.092 191.473C321.184 191.489 322.36 191.502 323.56 191.481C330.583 191.337 363.209 191.988 384.679 214.333C373.082 214.897 363.927 224.764 364.541 236.625C365.098 247.41 374.072 256.255 384.873 256.675C396.981 257.149 406.945 247.488 406.945 235.5C406.945 229.485 404.433 224.06 400.408 220.204C399.357 219.194 398.441 218.057 397.604 216.862C374.41 183.835 331.903 182.929 323.395 183.098C322.327 183.118 321.242 183.106 320.228 183.089C285.507 182.529 262.874 196.276 250.015 207.898C236.03 220.537 230.343 233.284 230.108 233.819L192.166 329.388C186.03 344.845 176.54 358.794 164.72 369.724C135.91 396.37 106.402 394.685 106.117 394.668L105.882 394.652L105.647 394.66C69.2931 396.061 42.8989 388.901 27.1943 373.394C24.2827 370.519 21.9691 367.544 20.1174 364.623C20.4845 364.644 20.8556 364.652 21.2309 364.652C33.2238 364.652 42.8906 354.716 42.4328 342.632C42.0163 331.724 32.9805 322.693 22.0599 322.281C9.9639 321.824 0.0166016 331.48 0.0166016 343.461C0.0166016 348.4 1.70747 352.94 4.54072 356.545C6.95744 359.614 9.3329 362.72 11.2259 366.139C13.6013 370.432 16.8016 374.898 21.1237 379.199C37.1582 395.158 62.6533 403.225 96.9946 403.225C99.8526 403.225 102.781 403.167 105.758 403.056C109.124 403.241 139.926 404.09 170.428 375.887C183.163 364.113 193.379 349.105 199.977 332.49L237.828 237.152C238.232 236.25 243.606 224.908 255.933 213.859Z" fill="url(#paint2_linear_1243_1471)"/>
<path fill-rule="evenodd" clip-rule="evenodd" d="M205.224 228.055C206.76 233.385 207.496 239.024 207.376 244.664C209.402 236.944 209.468 231.364 210.018 223.584C208.852 193.495 182.307 179.891 158.285 168.308C133.587 156.42 105.261 142.751 99.6065 110.332C108.883 142.691 136.163 154.024 159.701 165.363C177.519 173.942 196.323 182.89 206.706 200.602C202.713 186.014 195.218 170.329 184.094 152.862C181.392 154.883 178.009 156.23 174.262 156.725C169.163 157.398 163.324 156.54 157.304 153.845C138.996 145.755 122.218 123.877 114.603 106.045C101.148 74.425 112.882 50.5251 104.896 20.676C115.524 44.2064 104.591 74.0556 117.675 104.758C118.721 107.148 119.827 109.479 121.053 111.804C118.656 105.127 117.18 98.2 116.749 91.4576C115.518 73.4416 120.682 57.0175 125.41 42.0006C131.495 22.5721 133.826 13.1349 131.8 0.26947C137.389 9.52193 144.705 15.5907 157.974 25.8265C174.932 39.0016 195.762 55.1214 205.469 79.5103C210.628 92.6257 212.475 106.963 210.448 120.877C216.593 103.964 217.573 86.8667 213.58 70.3829C208.171 48.1998 193.67 27.1196 171.184 7.99527C196.312 24.9681 211.243 46.6622 216.838 69.5842C223.843 98.4499 215.977 123.637 200.556 147.782C208.787 126.332 210.938 102.373 202.337 80.7382C193 57.2077 172.535 41.3324 155.948 28.4615C147.652 22.0288 140.216 16.3295 135.548 10.6303C135.548 20.6814 132.23 31.4062 128.543 42.9894C123.934 57.6967 118.895 73.8165 120.061 91.2185C120.922 103.535 125.285 116.466 132.35 127.435C138.985 137.606 147.957 146.065 158.65 150.846C164.059 153.237 169.277 154.035 173.826 153.421C177.083 152.992 179.971 151.83 182.242 150.113C181.567 149.195 180.891 148.211 180.216 147.233C177.514 143.495 174.747 139.632 173.091 135.65C167.621 122.29 183.288 116.895 188.637 130.076C190.544 134.612 191.034 138.779 190.418 142.452C189.863 145.576 188.512 148.336 186.545 150.602C200.245 171.867 208.542 190.681 211.799 208.148C214.686 190.926 220.956 175.3 227.406 159.186C239.019 130.201 242.211 115.613 235.331 82.705C244.303 113.717 242.337 130.749 230.478 160.414C225.134 173.898 220.891 184.498 217.944 195.527C215.672 204.106 214.071 212.995 213.335 223.719C213.46 232.972 211.984 241.92 209.032 250.809C223.903 228.56 235.822 200.249 240.801 174.023C240.43 204.666 219.109 249.217 197.424 270.118C204.184 257.801 207.131 246.832 202.032 228.995C199.02 218.27 192.63 208.529 183.413 201.357C167.622 189.04 144.274 184.2 127.317 172.187C145.195 182.053 169.343 186.161 185.445 198.722C195.267 206.361 202.027 216.657 205.224 228.055ZM187.096 141.892C187.651 138.828 187.221 135.275 185.559 131.293C181.872 122.344 172.35 125.039 176.217 134.417C177.694 137.97 180.335 141.708 182.918 145.326C183.473 146.125 184.083 146.918 184.639 147.717C185.87 146.06 186.731 144.098 187.096 141.892Z" fill="url(#paint3_linear_1243_1471)"/>
<path fill-rule="evenodd" clip-rule="evenodd" d="M169.524 115.417C153.733 120.568 135.914 110.088 132.842 93.783C131.551 86.9211 134.564 82.629 141.814 82.2596C143.72 82.1346 145.747 82.3193 147.833 82.4443C157.665 83.1777 160.122 82.3845 167.678 76.0116C169.274 74.6642 170.81 73.3765 172.346 72.3334C178.431 68.4108 183.404 70.0026 186.416 76.3756C193.552 91.3925 185.376 110.332 169.524 115.417ZM183.409 77.7882C181.258 73.2516 178.496 72.3334 174.193 75.1532C172.716 76.0713 171.305 77.2992 169.829 78.5216C161.598 85.5085 158.341 86.5517 147.588 85.753C145.622 85.6281 143.78 85.5085 141.999 85.5683C136.775 85.8128 135.239 88.2631 136.16 93.1691C138.861 107.507 154.653 116.765 168.538 112.288C182.429 107.757 189.679 91.0285 183.409 77.7882Z" fill="url(#paint4_linear_1243_1471)"/>
<path fill-rule="evenodd" clip-rule="evenodd" d="M239.57 162.359C239.015 160.767 239.875 159.11 241.477 158.621C243.013 158.067 244.734 158.925 245.225 160.522C245.78 162.055 244.92 163.771 243.318 164.26C241.722 164.749 240.061 163.891 239.57 162.359Z" fill="url(#paint5_linear_1243_1471)"/>
<path fill-rule="evenodd" clip-rule="evenodd" d="M231.46 71.0461C229.864 71.5351 228.083 70.6767 227.527 69.025C227.037 67.3679 227.897 65.6565 229.553 65.1024C231.215 64.5482 232.931 65.4718 233.486 67.1235C234.042 68.7208 233.121 70.4974 231.46 71.0461Z" fill="url(#paint6_linear_1243_1471)"/>
<path fill-rule="evenodd" clip-rule="evenodd" d="M117.791 164.136C119.387 163.647 121.109 164.505 121.664 166.097C122.155 167.689 121.294 169.465 119.698 169.96C118.102 170.514 116.381 169.59 115.825 167.998C115.335 166.407 116.195 164.69 117.791 164.136Z" fill="url(#paint7_linear_1243_1471)"/>
<path fill-rule="evenodd" clip-rule="evenodd" d="M100.403 100.341C100.834 101.748 100.098 103.28 98.6222 103.709C97.2113 104.198 95.6751 103.405 95.2448 101.993C94.7545 100.585 95.5499 99.0533 96.9662 98.5589C98.3716 98.1351 99.9077 98.8685 100.403 100.341Z" fill="url(#paint8_linear_1243_1471)"/>
<path fill-rule="evenodd" clip-rule="evenodd" d="M102.37 15.406C101.019 15.8353 99.5426 15.1018 99.1122 13.7489C98.6819 12.4015 99.4172 10.989 100.774 10.5C102.125 10.0708 103.601 10.8042 104.031 12.1571C104.456 13.5045 103.721 14.9768 102.37 15.406Z" fill="url(#paint9_linear_1243_1471)"/>
<path fill-rule="evenodd" clip-rule="evenodd" d="M162.704 5.04521C161.353 5.47442 159.876 4.74093 159.446 3.3881C159.016 2.04071 159.751 0.568367 161.108 0.139157C162.458 -0.290053 163.935 0.443401 164.365 1.79623C164.795 3.14905 164.055 4.616 162.704 5.04521Z" fill="url(#paint10_linear_1243_1471)"/>
<defs>
<linearGradient id="paint0_linear_1243_1471" x1="95.8848" y1="182.875" x2="95.8848" y2="359.634" gradientUnits="userSpaceOnUse">
<stop stop-color="#377DC2"/>
<stop offset="1" stop-color="#1A3B5C"/>
</linearGradient>
<linearGradient id="paint1_linear_1243_1471" x1="330.225" y1="220.064" x2="330.225" y2="397.148" gradientUnits="userSpaceOnUse">
<stop stop-color="#377DC2"/>
<stop offset="1" stop-color="#1A3B5C"/>
</linearGradient>
<linearGradient id="paint2_linear_1243_1471" x1="203.481" y1="183.073" x2="203.481" y2="403.225" gradientUnits="userSpaceOnUse">
<stop stop-color="#377DC2"/>
<stop offset="1" stop-color="#1A3B5C"/>
</linearGradient>
<linearGradient id="paint3_linear_1243_1471" x1="170.266" y1="0.26947" x2="170.266" y2="270.118" gradientUnits="userSpaceOnUse">
<stop stop-color="#1A3B5C"/>
<stop offset="1" stop-color="#377DC2"/>
</linearGradient>
<linearGradient id="paint4_linear_1243_1471" x1="160.784" y1="70.2065" x2="160.784" y2="116.738" gradientUnits="userSpaceOnUse">
<stop stop-color="#377DC2"/>
<stop offset="1" stop-color="#1A3B5C"/>
</linearGradient>
<linearGradient id="paint5_linear_1243_1471" x1="242.397" y1="158.452" x2="242.397" y2="164.398" gradientUnits="userSpaceOnUse">
<stop stop-color="#377DC2"/>
<stop offset="1" stop-color="#1A3B5C"/>
</linearGradient>
<linearGradient id="paint6_linear_1243_1471" x1="230.519" y1="64.9412" x2="230.519" y2="71.1827" gradientUnits="userSpaceOnUse">
<stop stop-color="#377DC2"/>
<stop offset="1" stop-color="#1A3B5C"/>
</linearGradient>
<linearGradient id="paint7_linear_1243_1471" x1="118.745" y1="163.999" x2="118.745" y2="170.121" gradientUnits="userSpaceOnUse">
<stop stop-color="#377DC2"/>
<stop offset="1" stop-color="#1A3B5C"/>
</linearGradient>
<linearGradient id="paint8_linear_1243_1471" x1="97.8125" y1="98.4398" x2="97.8125" y2="103.854" gradientUnits="userSpaceOnUse">
<stop stop-color="#377DC2"/>
<stop offset="1" stop-color="#1A3B5C"/>
</linearGradient>
<linearGradient id="paint9_linear_1243_1471" x1="101.57" y1="10.3775" x2="101.57" y2="15.5285" gradientUnits="userSpaceOnUse">
<stop stop-color="#377DC2"/>
<stop offset="1" stop-color="#1A3B5C"/>
</linearGradient>
<linearGradient id="paint10_linear_1243_1471" x1="161.905" y1="0.0166626" x2="161.905" y2="5.1677" gradientUnits="userSpaceOnUse">
<stop stop-color="#377DC2"/>
<stop offset="1" stop-color="#1A3B5C"/>
</linearGradient>
</defs>
</svg>
